                      =!DK GROUP HD BLURAY RELEAESEES!=

===================================================================================

         Ong Bak-3 (2010) 720p BDRip In[Hindi-Eng-Tai]6CH.AC3 By !!!dip

===================================================================================

Storyline:

Ong Bak 3 picks up where Ong Bak 2 had left off. Tien is captured and almost beaten to death before he is saved and brought back to the Kana Khone villagers. There he is taught meditation and how to deal with his Karma, but very soon his arch rival returns challenging Tien for a final duel.

Cast:

Tony Jaa..................Tien
Primorata Dejudom.........Pim
Nirut Sirichanya..........Master Bua
Petchtai Wongkamlao.......Mhen
Dan Chupong...............Bhuti Sangkha
Chumphorn Thepphithak.....Uncle Mao
Sorapong Chatree..........Chernung
Sarunyu Wongkrachang......Jom Rachan (uncredited)  


Directors :Tony Jaa, Panna Rittikrai
Writers :Tony Jaa, Panna Rittikrai
Stars: Tony Jaa, Dan Chupong and Primorata Dejudom
Format : Color, Dubbed,Widescreen
Language :[Hindi-Eng]6CH.AC3
Release Date : 14 January 2011 (USA) 
Run Time : 1h:38m:31s
Source Size: 27.1 GB (Maximum bit rate 35.0 Mbps)
Color :Color
SUBTITLE:Yes


Video Specifications:

Release Title/Year/Language...:Ong Bak-3 (2010) 720p BDRip In[Hindi-Eng-Tai]6CH.AC3 By !!!dip
Genre.........................:Action   
Source........................:BLURAY

ID                               : 1
Format                           : AVC
Format/Info                      : Advanced Video Codec
Format profile                   : High@L4.1
Format settings, CABAC           : Yes
Format settings, ReFrames        : 4 frames
Muxing mode                      : Header stripping
Codec ID                         : V_MPEG4/ISO/AVC
Duration                         : 1h 38mn
Bit rate                         : 3 332 Kbps
Width                            : 1 280 pixels
Height                           : 544 pixels
Display aspect ratio             : 2.35:1
Frame rate                       : 24.000 fps
Color space                      : YUV
Chroma subsampling               : 4:2:0
Bit depth                        : 8 bits
Scan type                        : Progressive
Bits/(Pixel*Frame)               : 0.199
Stream size                      : 2.22 GiB (66%)
Title                            : !!!dip
Team                             : DK Group HD Bluray Releases

Audio Specifications:


Audio #1
ID                               : 2
Format                           : AC-3
Format/Info                      : Audio Coding 3
Mode extension                   : CM (complete main)
Muxing mode                      : Header stripping
Codec ID                         : A_AC3
Duration                         : 1h 38mn
Bit rate mode                    : Constant
Bit rate                         : 640 Kbps
Channel(s)                       : 6 channels
Channel positions                : Front: L C R, Side: L R, LFE
Sampling rate                    : 48.0 KHz
Bit depth                        : 16 bits
Compression mode                 : Lossy
Stream size                      : 451 MiB (13%)
Title                            : !!!dip
Language                         : tai

Audio #2
ID                               : 3
Format                           : AC-3
Format/Info                      : Audio Coding 3
Mode extension                   : CM (complete main)
Muxing mode                      : Header stripping
Codec ID                         : A_AC3
Duration                         : 1h 38mn
Bit rate mode                    : Constant
Bit rate                         : 448 Kbps
Channel(s)                       : 6 channels
Channel positions                : Front: L C R, Side: L R, LFE
Sampling rate                    : 48.0 KHz
Bit depth                        : 16 bits
Compression mode                 : Lossy
Stream size                      : 316 MiB (9%)
Title                            : !!!dip
Language                         : English

Audio #3
ID                               : 4
Format                           : AC-3
Format/Info                      : Audio Coding 3
Mode extension                   : CM (complete main)
Muxing mode                      : Header stripping
Codec ID                         : A_AC3
Duration                         : 1h 38mn
Bit rate mode                    : Constant
Bit rate                         : 448 Kbps
Channel(s)                       : 6 channels
Channel positions                : Front: L C R, Side: L R, LFE
Sampling rate                    : 48.0 KHz
Bit depth                        : 16 bits
Compression mode                 : Lossy
Stream size                      : 316 MiB (9%)
Title                            : !!!dip
Language                         : Hindi

Text
ID                               : 5
Format                           : UTF-8
Codec ID                         : S_TEXT/UTF8
Codec ID/Info                    : UTF-8 Plain Text
Title                            : !!!dip
Language                         : English


SAMPLE IMAGE:

 
http://www.pix2links.com/images/06986496328723515088.jpg
 
http://www.pix2links.com/images/58747689095080925745.jpg
 
http://www.pix2links.com/images/61227657378214427073.jpg
 
http://www.pix2links.com/images/30201623661971428312.jpg
 
http://www.pix2links.com/images/98990094084898028687.jpg


SAMPLE VIDEO INCLUDED: